<svg width="243" height="61" viewBox="0 0 243 61" fill="none" xmlns="http://www.w3.org/2000/svg">
<path d="M19.8281 30.4297H5.25V42.7344H21.8906V44H3.98438V16.6953H21.8672V17.9844H5.25V29.1641H19.8281V30.4297ZM44.9062 37.4141C44.9062 35.8047 44.2812 34.5078 43.0312 33.5234C41.7969 32.5234 39.5234 31.6094 36.2109 30.7812C32.8984 29.9531 30.5547 29.0859 29.1797 28.1797C27.2891 26.9453 26.3438 25.2578 26.3438 23.1172C26.3438 21.0859 27.2422 19.4453 29.0391 18.1953C30.8359 16.9453 33.1797 16.3203 36.0703 16.3203C38.9609 16.3203 41.3203 17.0859 43.1484 18.6172C44.9766 20.1328 45.8906 22.0703 45.8906 24.4297H44.625C44.625 22.4453 43.8359 20.8125 42.2578 19.5312C40.6797 18.25 38.6172 17.6094 36.0703 17.6094C33.5547 17.6094 31.5078 18.125 29.9297 19.1562C28.3672 20.1875 27.5859 21.4922 27.5859 23.0703C27.5859 24.6172 28.2266 25.8672 29.5078 26.8203C30.8047 27.7734 32.9141 28.6172 35.8359 29.3516C38.7734 30.0703 40.8984 30.7812 42.2109 31.4844C43.5234 32.1719 44.5156 33 45.1875 33.9688C45.8594 34.9219 46.1953 36.0625 46.1953 37.3906C46.1953 39.4844 45.2656 41.1719 43.4062 42.4531C41.5469 43.7344 39.1562 44.375 36.2344 44.375C32.9844 44.375 30.3672 43.6562 28.3828 42.2188C26.3984 40.7656 25.4062 38.7891 25.4062 36.2891H26.6484C26.6484 38.4297 27.5312 40.1094 29.2969 41.3281C31.0625 42.5312 33.375 43.1328 36.2344 43.1328C38.8281 43.1328 40.9219 42.5938 42.5156 41.5156C44.1094 40.4375 44.9062 39.0703 44.9062 37.4141ZM71.4609 17.9844H60.8672V44H59.6016V17.9844H48.9844V16.6953H71.4609V17.9844ZM96.3516 16.6953V35.2578C96.3359 38.1328 95.4141 40.375 93.5859 41.9844C91.7734 43.5781 89.3438 44.375 86.2969 44.375C83.2188 44.375 80.7734 43.5703 78.9609 41.9609C77.1484 40.3359 76.2422 38.0781 76.2422 35.1875V16.6953H77.4844V35.1875C77.4844 37.5 78.2109 39.3672 79.6641 40.7891C81.1172 42.1953 83.0938 42.9688 85.5938 43.1094L86.2969 43.1328C88.9219 43.1328 91.0312 42.4297 92.625 41.0234C94.2344 39.6172 95.0547 37.7188 95.0859 35.3281V16.6953H96.3516ZM104.016 44V16.6953H112.148C114.477 16.6953 116.57 17.2188 118.43 18.2656C120.305 19.2969 121.75 20.7344 122.766 22.5781C123.797 24.4219 124.312 26.4922 124.312 28.7891V31.9062C124.312 34.2188 123.805 36.2891 122.789 38.1172C121.789 39.9297 120.367 41.3594 118.523 42.4062C116.68 43.4375 114.625 43.9688 112.359 44H104.016ZM105.281 17.9844V42.7344H112.125C114.188 42.7344 116.047 42.2812 117.703 41.375C119.375 40.4531 120.68 39.1641 121.617 37.5078C122.57 35.8516 123.047 33.9922 123.047 31.9297V28.7656C123.047 25.6406 122.031 23.0625 120 21.0312C117.969 19 115.281 17.9844 111.938 17.9844H105.281ZM151.266 16.6953V34.9766C151.266 37.8203 150.289 40.1016 148.336 41.8203C146.383 43.5234 143.773 44.375 140.508 44.375C137.227 44.375 134.625 43.5547 132.703 41.9141C130.781 40.2578 129.797 38.0078 129.75 35.1641V16.6953H134.039V34.9766C134.039 36.8672 134.594 38.3203 135.703 39.3359C136.828 40.3359 138.43 40.8359 140.508 40.8359C142.555 40.8359 144.133 40.3438 145.242 39.3594C146.367 38.3594 146.93 36.8984 146.93 34.9766V16.6953H151.266ZM173.695 32.3047H161.508V44H157.172V16.6953H175.57V20.2812H161.508V28.7188H173.695V32.3047ZM196.477 32.3047H184.289V44H179.953V16.6953H198.352V20.2812H184.289V28.7188H196.477V32.3047Z" fill="#343333"/>
<circle cx="236.5" cy="37.9149" r="6.5" transform="rotate(90 236.5 37.9149)" fill="#FF2B0F"/>
<circle cx="225.045" cy="23.9286" r="6.5" transform="rotate(90 225.045 23.9286)" fill="#2166CC"/>
<circle cx="213.591" cy="37.9149" r="6.5" transform="rotate(90 213.591 37.9149)" fill="#CDFF29"/>
</svg>
