<svg width="96" height="87" viewBox="0 0 96 87" fill="none" xmlns="http://www.w3.org/2000/svg">
<g style="mix-blend-mode:darken">
<path d="M91.2909 51.0325L53.1284 78.7675L14.9658 51.0325C14.4542 50.6563 14.0747 50.1278 13.8816 49.5228C13.6885 48.9178 13.6918 48.2673 13.8908 47.6642L18.2625 34.1192L27.0058 7.20837C27.0906 6.98909 27.2256 6.79273 27.4 6.63503C27.6839 6.37568 28.0546 6.23187 28.4392 6.23187C28.8237 6.23187 29.1944 6.37568 29.4783 6.63503C29.6625 6.813 29.7981 7.035 29.8725 7.28003L38.6159 34.1192H67.6409L76.3842 7.20837C76.469 6.98909 76.604 6.79273 76.7784 6.63503C77.0623 6.37568 77.433 6.23187 77.8176 6.23187C78.2021 6.23187 78.5728 6.37568 78.8567 6.63503C79.0409 6.813 79.1765 7.035 79.2509 7.28003L87.9942 34.1909L92.5451 47.6642C92.7261 48.2859 92.7019 48.9493 92.4759 49.5561C92.25 50.1629 91.8344 50.6807 91.2909 51.0325V51.0325Z" stroke="#F4F7FA" stroke-width="3" stroke-linecap="round" stroke-linejoin="round"/>
<path d="M69.7986 58.5287L36.4355 83L3.07242 58.5287C2.62515 58.1967 2.29338 57.7305 2.12458 57.1967C1.95577 56.6629 1.95858 56.0888 2.13261 55.5568L5.95449 43.6057L13.5982 19.8616C13.6724 19.6681 13.7904 19.4949 13.9428 19.3557C14.1911 19.1269 14.5151 19 14.8513 19C15.1875 19 15.5116 19.1269 15.7598 19.3557C15.9208 19.5127 16.0394 19.7086 16.1044 19.9248L23.7481 43.6057H49.1229L56.7666 19.8616C56.8408 19.6681 56.9588 19.4949 57.1112 19.3557C57.3595 19.1269 57.6835 19 58.0197 19C58.3559 19 58.68 19.1269 58.9282 19.3557C59.0892 19.5127 59.2078 19.7086 59.2728 19.9248L66.9165 43.6689L70.895 55.5568C71.0533 56.1053 71.0321 56.6906 70.8346 57.226C70.6371 57.7614 70.2738 58.2182 69.7986 58.5287V58.5287Z" stroke="#2166CC" stroke-width="3" stroke-linecap="round" stroke-linejoin="round"/>
</g>
</svg>
