<svg width="94" height="88" viewBox="0 0 94 88" fill="none" xmlns="http://www.w3.org/2000/svg">
<path d="M51 60.9166C60.8951 60.9166 68.9167 52.8951 68.9167 43C68.9167 33.1049 60.8951 25.0833 51 25.0833C41.1049 25.0833 33.0833 33.1049 33.0833 43C33.0833 52.8951 41.1049 60.9166 51 60.9166Z" stroke="#F7FAF4" stroke-width="3" stroke-linecap="round" stroke-linejoin="round"/>
<path d="M51 3.58331V10.75" stroke="#F7FAF4" stroke-width="3" stroke-linecap="round" stroke-linejoin="round"/>
<path d="M51 75.25V82.4167" stroke="#F7FAF4" stroke-width="3" stroke-linecap="round" stroke-linejoin="round"/>
<path d="M23.1216 15.1216L28.2099 20.2099" stroke="#F7FAF4" stroke-width="3" stroke-linecap="round" stroke-linejoin="round"/>
<path d="M73.7899 65.7899L78.8783 70.8783" stroke="#F7FAF4" stroke-width="3" stroke-linecap="round" stroke-linejoin="round"/>
<path d="M11.5833 43H18.75" stroke="#F7FAF4" stroke-width="3" stroke-linecap="round" stroke-linejoin="round"/>
<path d="M83.25 43H90.4167" stroke="#F7FAF4" stroke-width="3" stroke-linecap="round" stroke-linejoin="round"/>
<path d="M23.1216 70.8783L28.2099 65.7899" stroke="#F7FAF4" stroke-width="3" stroke-linecap="round" stroke-linejoin="round"/>
<path d="M73.7899 20.2099L78.8783 15.1216" stroke="#F7FAF4" stroke-width="3" stroke-linecap="round" stroke-linejoin="round"/>
<path d="M34.5 67.875C42.4391 67.875 48.875 61.4391 48.875 53.5C48.875 45.5609 42.4391 39.125 34.5 39.125C26.5609 39.125 20.125 45.5609 20.125 53.5C20.125 61.4391 26.5609 67.875 34.5 67.875Z" stroke="#BCDF49" stroke-width="3" stroke-linecap="round" stroke-linejoin="round"/>
<path d="M34.5 21.875V27.625" stroke="#BCDF49" stroke-width="3" stroke-linecap="round" stroke-linejoin="round"/>
<path d="M34.5 79.375V85.125" stroke="#BCDF49" stroke-width="3" stroke-linecap="round" stroke-linejoin="round"/>
<path d="M12.1324 31.1324L16.2149 35.2149" stroke="#BCDF49" stroke-width="3" stroke-linecap="round" stroke-linejoin="round"/>
<path d="M52.785 71.7849L56.8675 75.8674" stroke="#BCDF49" stroke-width="3" stroke-linecap="round" stroke-linejoin="round"/>
<path d="M2.875 53.5H8.625" stroke="#BCDF49" stroke-width="3" stroke-linecap="round" stroke-linejoin="round"/>
<path d="M60.375 53.5H66.125" stroke="#BCDF49" stroke-width="3" stroke-linecap="round" stroke-linejoin="round"/>
<path d="M12.1324 75.8674L16.2149 71.7849" stroke="#BCDF49" stroke-width="3" stroke-linecap="round" stroke-linejoin="round"/>
<path d="M52.785 35.2149L56.8675 31.1324" stroke="#BCDF49" stroke-width="3" stroke-linecap="round" stroke-linejoin="round"/>
</svg>
