<svg width="94" height="88" viewBox="0 0 94 88" fill="none" xmlns="http://www.w3.org/2000/svg">
<path d="M72.5 28.6667C78.4371 28.6667 83.25 23.8538 83.25 17.9167C83.25 11.9796 78.4371 7.16669 72.5 7.16669C66.5629 7.16669 61.75 11.9796 61.75 17.9167C61.75 23.8538 66.5629 28.6667 72.5 28.6667Z" stroke="#FAF4F4" stroke-width="3" stroke-linecap="round" stroke-linejoin="round"/>
<path d="M29.5 53.75C35.4371 53.75 40.25 48.9371 40.25 43C40.25 37.0629 35.4371 32.25 29.5 32.25C23.5629 32.25 18.75 37.0629 18.75 43C18.75 48.9371 23.5629 53.75 29.5 53.75Z" stroke="#FAF4F4" stroke-width="3" stroke-linecap="round" stroke-linejoin="round"/>
<path d="M72.5 78.8333C78.4371 78.8333 83.25 74.0204 83.25 68.0833C83.25 62.1463 78.4371 57.3333 72.5 57.3333C66.5629 57.3333 61.75 62.1463 61.75 68.0833C61.75 74.0204 66.5629 78.8333 72.5 78.8333Z" stroke="#FAF4F4" stroke-width="3" stroke-linecap="round" stroke-linejoin="round"/>
<path d="M38.7809 48.4108L63.255 62.6725" stroke="#FAF4F4" stroke-width="3" stroke-linecap="round" stroke-linejoin="round"/>
<path d="M63.2192 23.3275L38.7809 37.5892" stroke="#FAF4F4" stroke-width="3" stroke-linecap="round" stroke-linejoin="round"/>
<path d="M51.75 42C56.5135 42 60.375 38.1385 60.375 33.375C60.375 28.6115 56.5135 24.75 51.75 24.75C46.9865 24.75 43.125 28.6115 43.125 33.375C43.125 38.1385 46.9865 42 51.75 42Z" stroke="#FF2B0F" stroke-width="3" stroke-linecap="round" stroke-linejoin="round"/>
<path d="M17.25 62.125C22.0135 62.125 25.875 58.2635 25.875 53.5C25.875 48.7365 22.0135 44.875 17.25 44.875C12.4865 44.875 8.625 48.7365 8.625 53.5C8.625 58.2635 12.4865 62.125 17.25 62.125Z" stroke="#FF2B0F" stroke-width="3" stroke-linecap="round" stroke-linejoin="round"/>
<path d="M51.75 82.25C56.5135 82.25 60.375 78.3885 60.375 73.625C60.375 68.8615 56.5135 65 51.75 65C46.9865 65 43.125 68.8615 43.125 73.625C43.125 78.3885 46.9865 82.25 51.75 82.25Z" stroke="#FF2B0F" stroke-width="3" stroke-linecap="round" stroke-linejoin="round"/>
<path d="M24.6963 57.8412L44.3325 69.2837" stroke="#FF2B0F" stroke-width="3" stroke-linecap="round" stroke-linejoin="round"/>
<path d="M44.3038 37.7162L24.6963 49.1587" stroke="#FF2B0F" stroke-width="3" stroke-linecap="round" stroke-linejoin="round"/>
</svg>
