<svg width="78" height="76" viewBox="0 0 78 76" fill="none" xmlns="http://www.w3.org/2000/svg">
<path d="M69.7986 47.5287L36.4355 72L3.07242 47.5287C2.62515 47.1967 2.29338 46.7305 2.12458 46.1967C1.95577 45.6629 1.95858 45.0888 2.13261 44.5568L5.95449 32.6057L13.5982 8.86158C13.6724 8.66811 13.7904 8.49486 13.9428 8.35572C14.1911 8.12688 14.5151 8 14.8513 8C15.1875 8 15.5116 8.12688 15.7598 8.35572C15.9208 8.51274 16.0394 8.70862 16.1044 8.92482L23.7481 32.6057H49.1229L56.7666 8.86158C56.8408 8.66811 56.9588 8.49486 57.1112 8.35572C57.3595 8.12688 57.6835 8 58.0197 8C58.3559 8 58.68 8.12688 58.9282 8.35572C59.0892 8.51274 59.2078 8.70862 59.2728 8.92482L66.9165 32.6689L70.895 44.5568C71.0533 45.1053 71.0321 45.6906 70.8346 46.226C70.6371 46.7614 70.2738 47.2182 69.7986 47.5287V47.5287Z" stroke="#2166CC" stroke-width="3" stroke-linecap="round" stroke-linejoin="round"/>
</svg>
